g N_P.001
v -5E-05 3.084455E-05 5E-05
v -5E-05 1.542228E-05 7.671216E-05
v -5E-05 1.542228E-05 2.328783E-05
v -5.000001E-05 -3.084454E-05 4.999999E-05
v -5E-05 -1.542227E-05 2.328783E-05
v -5.000001E-05 -1.542227E-05 7.671216E-05
vt 0.5 2.980232E-08
vt 0.06698731 0.25
vt 0.9330127 0.25
vt 0.5 1
vt 0.9330127 0.75
vt 0.06698731 0.7499999
vn -1 0 -1.115683E-07
vn -1 1.80856E-07 -1.115683E-07
vn -1 2.712839E-07 -1.115683E-07
vn -1 2.712839E-07 -1.115683E-07
vn -1 3.617117E-07 -1.115683E-07
vn -1 0 -1.115683E-07
g N_P.001_0
f 3/3/3 2/2/2 1/1/1
f 4/4/4 2/2/2 3/3/3
f 4/4/4 3/3/3 5/5/5
f 4/4/4 6/6/6 2/2/2
