g T
v -4.999998E-05 1.546218E-05 2.321873E-05
v -5E-05 9.823152E-12 1.907565E-05
v 4.999998E-05 1.546216E-05 2.321878E-05
v 4.999996E-05 -6.468911E-12 1.907571E-05
v -5E-05 -1.546216E-05 2.321873E-05
v 4.999997E-05 -1.546218E-05 2.321878E-05
v -5E-05 -2.678125E-05 3.453783E-05
v 4.999997E-05 -2.678127E-05 3.453787E-05
v -5E-05 -3.092433E-05 4.999999E-05
v 4.999997E-05 -3.092435E-05 5.000005E-05
v -5E-05 -2.678124E-05 6.546218E-05
v 4.999996E-05 -2.678126E-05 6.546223E-05
v -5E-05 -1.546215E-05 7.678126E-05
v 4.999996E-05 -1.546216E-05 7.678132E-05
v -5E-05 2.100528E-11 8.092433E-05
v 5E-05 4.71321E-12 8.092439E-05
v -5E-05 1.546218E-05 7.678125E-05
v 4.999997E-05 1.546217E-05 7.67813E-05
v -5E-05 2.678127E-05 6.546216E-05
v 4.999997E-05 2.678126E-05 6.546221E-05
v -5E-05 3.092435E-05 4.999999E-05
v 4.999997E-05 3.092433E-05 5.000004E-05
v -4.999998E-05 2.678127E-05 3.453783E-05
v 4.999998E-05 2.678125E-05 3.453787E-05
v -4.999998E-05 1.546218E-05 2.321873E-05
v 4.999998E-05 1.546216E-05 2.321878E-05
vt 1 1
vt 1 0.9140625
vt 0 1
vt 0 0.9140625
vt 1 0.828125
vt 0 0.828125
vt 1 0.74375
vt 0 0.74375
vt 1 0.6625
vt 0 0.6625
vt 1 0.578125
vt 0 0.578125
vt 1 0.496875
vt 0 0.496875
vt 1 0.4109375
vt 0 0.4109375
vt 1 0.3296875
vt 0 0.3296875
vt 1 0.2484375
vt 0 0.2484375
vt 1 0.1640625
vt 0 0.1640625
vt 1 0.08125
vt 0 0.08125
vt 1 0
vt 0 0
vn 5.300448E-07 0.5 -0.8660254
vn 5.059517E-07 0 -1
vn 5.300448E-07 0.5000002 -0.8660253
vn 5.059518E-07 0 -1
vn 3.373012E-07 -0.5 -0.8660254
vn 3.373011E-07 -0.5000001 -0.8660253
vn 0 -0.8660254 -0.5
vn 0 -0.8660255 -0.4999999
vn -1.746736E-07 -1 1.767783E-07
vn -1.746737E-07 -1 2.455255E-07
vn -3.674172E-07 -0.8660253 0.5000002
vn -3.674173E-07 -0.8660253 0.5000004
vn -5.300448E-07 -0.4999995 0.8660257
vn -5.300448E-07 -0.4999993 0.8660258
vn -5.541376E-07 5.89261E-07 1
vn -5.541376E-07 6.285459E-07 1
vn -3.613942E-07 0.5000004 0.8660253
vn -3.613941E-07 0.5000001 0.8660253
vn 0 0.8660255 0.4999999
vn 0 0.8660254 0.4999999
vn 1.746739E-07 1 -1.276733E-07
vn 1.746738E-07 1 0
vn 4.035568E-07 0.8660254 -0.5
vn 4.035568E-07 0.8660254 -0.5
vn 5.300448E-07 0.5 -0.8660254
vn 5.300448E-07 0.5000002 -0.8660253
g T_0
f 3/3/3 2/2/2 1/1/1
f 4/4/4 2/2/2 3/3/3
f 4/4/4 5/5/5 2/2/2
f 6/6/6 5/5/5 4/4/4
f 6/6/6 7/7/7 5/5/5
f 8/8/8 7/7/7 6/6/6
f 8/8/8 9/9/9 7/7/7
f 10/10/10 9/9/9 8/8/8
f 10/10/10 11/11/11 9/9/9
f 12/12/12 11/11/11 10/10/10
f 12/12/12 13/13/13 11/11/11
f 14/14/14 13/13/13 12/12/12
f 14/14/14 15/15/15 13/13/13
f 16/16/16 15/15/15 14/14/14
f 16/16/16 17/17/17 15/15/15
f 18/18/18 17/17/17 16/16/16
f 18/18/18 19/19/19 17/17/17
f 20/20/20 19/19/19 18/18/18
f 20/20/20 21/21/21 19/19/19
f 22/22/22 21/21/21 20/20/20
f 22/22/22 23/23/23 21/21/21
f 24/24/24 23/23/23 22/22/22
f 24/24/24 25/25/25 23/23/23
f 26/26/26 25/25/25 24/24/24
