g N_P 1
v -3.814697E-10 0.003185997 0.001968503
v 0.0006087463 0.003022885 0.001968504
v -0.0006087471 0.003022884 0.001968504
v 0.001217494 0.001968504 0.001968503
v 0.00105438 0.002577252 0.001968504
v -0.0006087471 0.0009141235 0.001968503
v -0.001217494 0.001968504 0.001968503
v -0.001054381 0.002577251 0.001968504
v -0.00105438 0.001359757 0.001968503
v 0.0006087467 0.0009141235 0.001968503
v 0 0.0007510104 0.001968504
v 0.00105438 0.001359757 0.001968503
vt 0.04565006 0.3724669
vt 0.04388744 0.6189004
vt 0.1703933 0.1599306
vt 0.3781144 0.9579427
vt 0.1655777 0.8331994
vt 0.9653525 0.3790447
vt 0.6311256 0.04000279
vt 0.3846922 0.03824025
vt 0.8436621 0.164746
vt 0.838847 0.8380147
vt 0.96359 0.6254783
vt 0.624548 0.9597052
vn 0 4.677362E-06 1
vn -1.712035E-07 -2.823388E-07 1
vn 1.294269E-07 0 1
vn 0 -4.606392E-07 1
vn -1.712029E-06 -1.712031E-06 1
vn 0 2.506592E-07 1
vn -3.301147E-07 -4.606397E-07 1
vn 1.712033E-06 -1.712033E-06 1
vn 0 0 1
vn 0 4.677366E-07 1
vn 0 4.677362E-06 1
vn 0 0 1
g N_P 1_0
f 3/3/3 2/2/2 1/1/1
f 4/4/4 2/2/2 3/3/3
f 4/4/4 5/5/5 2/2/2
f 4/4/4 3/3/3 6/6/6
f 6/6/6 3/3/3 7/7/7
f 7/7/7 3/3/3 8/8/8
f 6/6/6 7/7/7 9/9/9
f 4/4/4 6/6/6 10/10/10
f 10/10/10 6/6/6 11/11/11
f 4/4/4 10/10/10 12/12/12
