g N_P
v -0.001206887 0.001968504 0.001968504
v -0.0006034435 0.003013699 0.001968504
v -0.0006034438 0.0009233092 0.001968504
v 0.001206887 0.001968504 0.001968504
v 0.0006034436 0.0009233092 0.001968504
v 0.0006034435 0.003013699 0.001968504
vt 0.5 2.980232E-08
vt 0.06698731 0.25
vt 0.9330127 0.25
vt 0.5 1
vt 0.9330127 0.75
vt 0.06698731 0.7499999
vn 0 0 1
vn 0 0 1
vn 0 0 1
vn 0 0 1
vn 0 0 1
vn 0 0 1
g N_P_0
f 3/3/3 2/2/2 1/1/1
f 4/4/4 2/2/2 3/3/3
f 4/4/4 3/3/3 5/5/5
f 4/4/4 6/6/6 2/2/2
