g W_P
v 0.001968504 0.0009233094 -0.0006034437
v 0.001968504 0.0009233096 0.0006034436
v 0.001968504 0.001968504 -0.001206888
v 0.001968503 0.0030137 0.0006034431
v 0.001968504 0.0030137 -0.0006034439
v 0.001968504 0.001968505 0.001206887
vt 0.9330127 0.25
vt 0.9330127 0.75
vt 0.5 2.980232E-08
vt 0.06698731 0.7499999
vt 0.06698731 0.25
vt 0.5 1
vn 1 5.47462E-07 3.160773E-07
vn 1 2.737311E-07 0
vn 1 1.824874E-07 2.107182E-07
vn 1 0 0
vn 1 -1.824874E-07 3.160775E-07
vn 1 1.824873E-07 -3.160773E-07
g W_P_0
f 3/3/3 2/2/2 1/1/1
f 4/4/4 2/2/2 3/3/3
f 4/4/4 3/3/3 5/5/5
f 4/4/4 6/6/6 2/2/2
