g T
v -0.0006397044 0.001108 0
v 0.0006397042 0.001108 0
v -3.178914E-11 -3.178914E-11 0.001220473
v 0.001279409 0 0
v 0.0006397042 -0.001108 0
v 0.0006397042 -0.001108 0
v -0.0006397042 -0.001108 0
v -3.178914E-11 -3.178914E-11 0.001220473
v -0.001279409 -1.118495E-10 0
v -0.0006397044 0.001108 0
vt 1.083333 0
vt 0.9166667 0
vt 0.8333333 1
vt 0.75 0
vt 0.5833333 0
vt 0.5833333 0
vt 0.4166667 0
vt 0.2500001 1
vt 0.25 0
vt 0.08333335 0
vn -0.3451224 0.5977693 0.7235762
vn 0.3451222 0.5977693 0.7235762
vn 0 0 1
vn 0.6902446 0 0.7235762
vn 0.3451222 -0.5977694 0.7235762
vn 0.3451222 -0.5977694 0.7235762
vn -0.3451222 -0.5977694 0.7235762
vn 0 0 1
vn -0.6902446 0 0.7235761
vn -0.3451224 0.5977693 0.7235762
g T_0
f 3/3/3 2/2/2 1/1/1
f 3/3/3 4/4/4 2/2/2
f 3/3/3 5/5/5 4/4/4
f 8/8/8 7/7/7 6/6/6
f 8/8/8 9/9/9 7/7/7
f 8/8/8 10/10/10 9/9/9
