g S.001
v -1.899999E-05 5E-05 1.709106E-05
v 1.900002E-05 5E-05 1.709106E-05
v -3.799999E-05 5E-05 5.000002E-05
v 1.900001E-05 4.999999E-05 8.290899E-05
v -1.899998E-05 4.999999E-05 8.290899E-05
v 3.800001E-05 4.999999E-05 5.000002E-05
vt 0.9330127 0.25
vt 0.9330127 0.75
vt 0.5 0
vt 0.06698731 0.7499999
vt 0.06698731 0.2500001
vt 0.5 1
vn 0 1 1.191577E-07
vn 1.241763E-07 1 1.688068E-07
vn 0 1 2.283856E-07
vn 1.241763E-07 1 2.581751E-07
vn 0 1 4.766311E-07
vn 2.352814E-07 1 2.383155E-07
g S.001_0
f 3/3/3 2/2/2 1/1/1
f 4/4/4 2/2/2 3/3/3
f 4/4/4 3/3/3 5/5/5
f 4/4/4 6/6/6 2/2/2
