g T.001
v 1.9E-05 -5E-05 8.290896E-05
v -1.9E-05 -5.000001E-05 8.290896E-05
v 1.900001E-05 4.999999E-05 8.290899E-05
v -1.899998E-05 4.999999E-05 8.290899E-05
v -3.799999E-05 -4.999999E-05 5E-05
v -3.799999E-05 5E-05 5.000002E-05
v -1.9E-05 -4.999998E-05 1.709104E-05
v -1.899999E-05 5E-05 1.709106E-05
v 1.9E-05 -4.999999E-05 1.709103E-05
v 1.900002E-05 5E-05 1.709106E-05
v 3.8E-05 -5E-05 5E-05
v 3.800001E-05 4.999999E-05 5.000002E-05
v 1.9E-05 -5E-05 8.290896E-05
v 1.900001E-05 4.999999E-05 8.290899E-05
vt -0.08333331 0
vt 0.08333331 0
vt -0.08333331 1
vt 0.08333331 1
vt 0.25 0
vt 0.25 1
vt 0.4166667 0
vt 0.4166667 1
vt 0.5833334 0
vt 0.5833334 1
vt 0.75 0
vt 0.75 1
vt 0.9166667 0
vt 0.9166667 1
vn 0.4999999 -3.079036E-07 0.8660255
vn -0.5 -1.947038E-07 0.8660254
vn 0.4999999 -3.079036E-07 0.8660255
vn -0.5 -1.947038E-07 0.8660254
vn -1 1.018799E-07 0
vn -1 1.018799E-07 0
vn -0.5000001 2.793773E-07 -0.8660254
vn -0.5000001 2.793773E-07 -0.8660253
vn 0.5000001 1.774974E-07 -0.8660253
vn 0.5000001 1.774974E-07 -0.8660253
vn 1 -1.131998E-07 0
vn 1 -1.131999E-07 0
vn 0.4999999 -3.079036E-07 0.8660255
vn 0.4999999 -3.079036E-07 0.8660255
g T.001_0
f 3/3/3 2/2/2 1/1/1
f 4/4/4 2/2/2 3/3/3
f 4/4/4 5/5/5 2/2/2
f 6/6/6 5/5/5 4/4/4
f 6/6/6 7/7/7 5/5/5
f 8/8/8 7/7/7 6/6/6
f 8/8/8 9/9/9 7/7/7
f 10/10/10 9/9/9 8/8/8
f 10/10/10 11/11/11 9/9/9
f 12/12/12 11/11/11 10/10/10
f 12/12/12 13/13/13 11/11/11
f 14/14/14 13/13/13 12/12/12
