o UP
mtllib pipe.mtl
o pipe
v 0.5 0.99 -0.03
v 0.45757 0.99 -0.04757
v 0.44909 0.99 -0.04042
v 0.5 0.99 -0.01933
v 0.44 0.99 -0.09
v 0.428 0.99 -0.09133
v 0.45757 0.99 -0.13243
v 0.44909 0.99 -0.14225
v 0.5 0.99 -0.15
v 0.5 0.99 -0.16333
v 0.54243 0.99 -0.13243
v 0.55091 0.99 -0.14225
v 0.56 0.99 -0.09
v 0.572 0.99 -0.09133
v 0.54243 0.99 -0.04757
v 0.55091 0.99 -0.04042
v 0.44909 1 -0.04042
v 0.5 1 -0.01933
v 0.428 1 -0.09133
v 0.44909 1 -0.14225
v 0.5 1 -0.16333
v 0.55091 1 -0.14225
v 0.572 1 -0.09133
v 0.55091 1 -0.04042
v 0.5 1 -0.08333
vn 0 1 0
vn 0.38268 0 -0.92388
vn 0.92388 0 -0.38268
vn 0.92388 0 0.38268
vn 0.38268 0 0.92388
vn -0.38268 0 0.92388
vn -0.92388 0 0.38268
vn -0.92388 0 -0.38268
vn -0.38268 0 -0.92388
vn 0 -1 0
vt 0.0680851 0.564036
vt 0.180257 0.836458
vt 0.134606 0.902846
vt 0 0.575939
vt 0.451064 0.910079
vt 0.459574 0.99119
vt 0.721871 0.741772
vt 0.784543 0.789222
vt 0.834043 0.43013
vt 0.919149 0.415251
vt 0.721871 0.157708
vt 0.784543 0.0883447
vt 0.451064 0.084087
vt 0.459574 0
vt 0.180257 0.252394
vt 0.134606 0.201968
vt 0.215457 0.911655
vt 0.0808511 0.584749
vt 0.540426 1
vt 0.865394 0.798032
vt 1 0.424061
vt 0.865394 0.0971544
vt 0.540426 0.0088096
vt 0.215457 0.210778
vt 0.489362 0.513332
usemtl pipe
f 1/1/1 2/2/1 3/3/1 4/4/1
f 2/2/1 5/5/1 6/6/1 3/3/1
f 5/5/1 7/7/1 8/8/1 6/6/1
f 7/7/1 9/9/1 10/10/1 8/8/1
f 9/9/1 11/11/1 12/12/1 10/10/1
f 11/11/1 13/13/1 14/14/1 12/12/1
f 13/13/1 15/15/1 16/16/1 14/14/1
f 15/15/1 1/1/1 4/4/1 16/16/1
f 4/4/2 3/3/3 17/17/3 18/18/2
f 3/3/3 6/6/4 19/19/4 17/17/3
f 6/6/4 8/8/5 20/20/5 19/19/4
f 8/8/5 10/10/6 21/21/6 20/20/5
f 10/10/6 12/12/7 22/22/7 21/21/6
f 12/12/7 14/14/8 23/23/8 22/22/7
f 14/14/8 16/16/9 24/24/9 23/23/8
f 16/16/9 4/4/9 18/18/9 24/24/9
f 18/18/10 17/17/10 25/25/10 25/25/10
f 17/17/10 19/19/10 25/25/10 25/25/10
f 19/19/10 20/20/10 25/25/10 25/25/10
f 20/20/10 21/21/10 25/25/10 25/25/10
f 21/21/10 22/22/10 25/25/10 25/25/10
f 22/22/10 23/23/10 25/25/10 25/25/10
f 23/23/10 24/24/10 25/25/10 25/25/10
f 24/24/10 18/18/10 25/25/10 25/25/10
